<mxfile host="app.diagrams.net" modified="2024-05-21T22:49:45.599Z" agent="Mozilla/5.0 (X11; Linux x86_64) AppleWebKit/537.36 (KHTML, like Gecko) Chrome/125.0.0.0 Safari/537.36" etag="BaxB6U-0GZEX3raxVIan" version="24.4.4" type="device">
  <diagram name="Page-1" id="efa7a0a1-bf9b-a30e-e6df-94a7791c09e9">
    <mxGraphModel dx="810" dy="1616" grid="1" gridSize="10" guides="1" tooltips="1" connect="1" arrows="1" fold="1" page="1" pageScale="1" pageWidth="826" pageHeight="1169" background="none" math="0" shadow="0">
      <root>
        <mxCell id="0" />
        <mxCell id="1" parent="0" />
        <mxCell id="26" value="&lt;p style=&quot;margin: 0px; margin-top: 4px; text-align: center; text-decoration: underline;&quot;&gt;&lt;b&gt;Invoice&lt;/b&gt;&lt;/p&gt;&lt;hr&gt;&lt;p style=&quot;margin: 0px; margin-left: 8px;&quot;&gt;id: UUID&lt;/p&gt;&lt;p style=&quot;margin: 0px; margin-left: 8px;&quot;&gt;customer: Customer&lt;/p&gt;&lt;p style=&quot;margin: 0px; margin-left: 8px;&quot;&gt;paymentMethod: String&lt;/p&gt;&lt;p style=&quot;margin: 0px; margin-left: 8px;&quot;&gt;total: Double&lt;/p&gt;&lt;p style=&quot;margin: 0px; margin-left: 8px;&quot;&gt;details: List&amp;lt;InvoiceDetail&amp;gt;&lt;/p&gt;&lt;p style=&quot;margin: 0px; margin-left: 8px;&quot;&gt;invoiceDate: DateTime&lt;/p&gt;&lt;p style=&quot;margin: 0px; margin-left: 8px;&quot;&gt;&lt;br&gt;&lt;/p&gt;&lt;p style=&quot;margin: 0px; margin-left: 8px;&quot;&gt;&lt;br&gt;&lt;/p&gt;" style="verticalAlign=top;align=left;overflow=fill;fontSize=12;fontFamily=Helvetica;html=1;strokeColor=#003366;shadow=1;fillColor=#D4E1F5;fontColor=#003366" parent="1" vertex="1">
          <mxGeometry x="900" y="-190" width="160" height="160" as="geometry" />
        </mxCell>
        <mxCell id="27" value="&lt;p style=&quot;margin: 0px; margin-top: 4px; text-align: center; text-decoration: underline;&quot;&gt;&lt;strong&gt;VehicleTracking&lt;/strong&gt;&lt;/p&gt;&lt;hr&gt;&lt;p style=&quot;margin: 0px; margin-left: 8px;&quot;&gt;id: UUID&lt;/p&gt;&lt;p style=&quot;margin: 0px; margin-left: 8px;&quot;&gt;rent: Rent&lt;/p&gt;&lt;p style=&quot;margin: 0px; margin-left: 8px;&quot;&gt;kmAtStart: Integer&lt;/p&gt;&lt;p style=&quot;margin: 0px; margin-left: 8px;&quot;&gt;kmAtEnd: Integer&lt;/p&gt;&lt;p style=&quot;margin: 0px; margin-left: 8px;&quot;&gt;anyIssue: Boolean&lt;/p&gt;&lt;p style=&quot;margin: 0px; margin-left: 8px;&quot;&gt;issueDescription: String&lt;/p&gt;" style="verticalAlign=top;align=left;overflow=fill;fontSize=12;fontFamily=Helvetica;html=1;strokeColor=#003366;shadow=1;fillColor=#D4E1F5;fontColor=#003366" parent="1" vertex="1">
          <mxGeometry x="310" y="410" width="160" height="120" as="geometry" />
        </mxCell>
        <mxCell id="35" value="&lt;p style=&quot;margin: 0px; margin-top: 4px; text-align: center; text-decoration: underline;&quot;&gt;&lt;strong&gt;VehicleType&lt;/strong&gt;&lt;/p&gt;&lt;hr&gt;&lt;p style=&quot;margin: 0px; margin-left: 8px;&quot;&gt;id: UUID&lt;/p&gt;&lt;p style=&quot;margin: 0px; margin-left: 8px;&quot;&gt;name: String&lt;/p&gt;&lt;p style=&quot;margin: 0px; margin-left: 8px;&quot;&gt;description: String&lt;/p&gt;&lt;p style=&quot;margin: 0px; margin-left: 8px;&quot;&gt;typeOfUses: String&lt;/p&gt;&lt;p style=&quot;margin: 0px; margin-left: 8px;&quot;&gt;created: DateTime&lt;/p&gt;&lt;p style=&quot;margin: 0px; margin-left: 8px;&quot;&gt;kmPerMaintenance: Integer&lt;/p&gt;&lt;p style=&quot;margin: 0px; margin-left: 8px;&quot;&gt;&lt;br&gt;&lt;/p&gt;" style="verticalAlign=top;align=left;overflow=fill;fontSize=12;fontFamily=Helvetica;html=1;strokeColor=#003366;shadow=1;fillColor=#D4E1F5;fontColor=#003366" parent="1" vertex="1">
          <mxGeometry x="550" y="750" width="160" height="130" as="geometry" />
        </mxCell>
        <mxCell id="45" value="" style="endArrow=open;endSize=12;startArrow=diamondThin;startSize=14;startFill=0;edgeStyle=orthogonalEdgeStyle;rounded=0;entryX=0.563;entryY=-0.011;entryDx=0;entryDy=0;entryPerimeter=0;endFill=0;exitX=1;exitY=0.75;exitDx=0;exitDy=0;" parent="1" source="1C2bqcWKQXLCqtVfAiTg-114" target="1C2bqcWKQXLCqtVfAiTg-117" edge="1">
          <mxGeometry x="519.3599999999999" y="180" as="geometry">
            <mxPoint x="751.0800000000004" y="151.60000000000002" as="sourcePoint" />
            <mxPoint x="960" y="152" as="targetPoint" />
          </mxGeometry>
        </mxCell>
        <mxCell id="46" value="1" style="resizable=0;align=left;verticalAlign=top;labelBackgroundColor=#ffffff;fontSize=10;strokeColor=#003366;shadow=1;fillColor=#D4E1F5;fontColor=#003366" parent="45" connectable="0" vertex="1">
          <mxGeometry x="-1" relative="1" as="geometry">
            <mxPoint x="8.919999999999618" as="offset" />
          </mxGeometry>
        </mxCell>
        <mxCell id="48" value="" style="endArrow=open;endSize=12;startArrow=none;startSize=14;startFill=0;edgeStyle=orthogonalEdgeStyle;rounded=0;entryX=0.994;entryY=0.874;entryDx=0;entryDy=0;entryPerimeter=0;endFill=0;" parent="1" source="1C2bqcWKQXLCqtVfAiTg-116" target="35" edge="1">
          <mxGeometry x="769.3599999999999" y="450" as="geometry">
            <mxPoint x="751.0800000000004" y="581.9600000000007" as="sourcePoint" />
            <mxPoint x="560" y="390" as="targetPoint" />
          </mxGeometry>
        </mxCell>
        <mxCell id="49" value="0..n" style="resizable=0;align=left;verticalAlign=top;labelBackgroundColor=#ffffff;fontSize=10;strokeColor=#003366;shadow=1;fillColor=#D4E1F5;fontColor=#003366" parent="48" connectable="0" vertex="1">
          <mxGeometry x="-1" relative="1" as="geometry">
            <mxPoint x="-25" y="155" as="offset" />
          </mxGeometry>
        </mxCell>
        <mxCell id="51" value="" style="endArrow=open;endSize=12;startArrow=diamondThin;startSize=14;startFill=0;edgeStyle=orthogonalEdgeStyle;entryX=0.25;entryY=0;entryDx=0;entryDy=0;endFill=0;exitX=0.5;exitY=1;exitDx=0;exitDy=0;" parent="1" source="1C2bqcWKQXLCqtVfAiTg-114" target="1C2bqcWKQXLCqtVfAiTg-116" edge="1">
          <mxGeometry x="389.35999999999996" y="350" as="geometry">
            <mxPoint x="689" y="230" as="sourcePoint" />
            <mxPoint x="670.04" y="488" as="targetPoint" />
          </mxGeometry>
        </mxCell>
        <mxCell id="52" value="1..n" style="resizable=0;align=left;verticalAlign=top;labelBackgroundColor=#ffffff;fontSize=10;strokeColor=#003366;shadow=1;fillColor=#D4E1F5;fontColor=#003366" parent="51" connectable="0" vertex="1">
          <mxGeometry x="-1" relative="1" as="geometry">
            <mxPoint x="8.91999999999958" as="offset" />
          </mxGeometry>
        </mxCell>
        <mxCell id="78" value="" style="endArrow=open;endSize=12;startArrow=diamondThin;startSize=14;startFill=0;edgeStyle=orthogonalEdgeStyle;exitX=0;exitY=0.75;exitDx=0;exitDy=0;endFill=0;entryX=0.813;entryY=1.036;entryDx=0;entryDy=0;entryPerimeter=0;" parent="1" source="1C2bqcWKQXLCqtVfAiTg-116" target="27" edge="1">
          <mxGeometry x="1309.36" y="540" as="geometry">
            <mxPoint x="619.04" y="650" as="sourcePoint" />
            <mxPoint x="440" y="560" as="targetPoint" />
            <Array as="points">
              <mxPoint x="620" y="618" />
              <mxPoint x="620" y="630" />
              <mxPoint x="440" y="630" />
            </Array>
          </mxGeometry>
        </mxCell>
        <mxCell id="79" value="0..n" style="resizable=0;align=left;verticalAlign=top;labelBackgroundColor=#ffffff;fontSize=10;strokeColor=#003366;shadow=1;fillColor=#D4E1F5;fontColor=#003366" parent="78" connectable="0" vertex="1">
          <mxGeometry x="-1" relative="1" as="geometry">
            <mxPoint x="10" as="offset" />
          </mxGeometry>
        </mxCell>
        <mxCell id="80" value="1" style="resizable=0;align=right;verticalAlign=top;labelBackgroundColor=#ffffff;fontSize=10;strokeColor=#003366;shadow=1;fillColor=#D4E1F5;fontColor=#003366" parent="78" connectable="0" vertex="1">
          <mxGeometry x="1" relative="1" as="geometry">
            <mxPoint x="-10" as="offset" />
          </mxGeometry>
        </mxCell>
        <mxCell id="103" value="1" style="endArrow=open;endSize=12;startArrow=diamondThin;startSize=14;startFill=1;edgeStyle=orthogonalEdgeStyle;align=left;verticalAlign=bottom;entryX=0;entryY=0.5;entryDx=0;entryDy=0;endFill=0;exitX=1.006;exitY=0.2;exitDx=0;exitDy=0;exitPerimeter=0;" parent="1" source="1C2bqcWKQXLCqtVfAiTg-114" target="26" edge="1">
          <mxGeometry x="-0.8181818181818175" y="4.999999999999702" relative="1" as="geometry">
            <mxPoint x="750" y="34.5" as="sourcePoint" />
            <mxPoint x="860" y="34.49999999999977" as="targetPoint" />
            <mxPoint as="offset" />
          </mxGeometry>
        </mxCell>
        <mxCell id="1C2bqcWKQXLCqtVfAiTg-114" value="&lt;p style=&quot;margin: 0px; margin-top: 4px; text-align: center; text-decoration: underline;&quot;&gt;&lt;b&gt;Rent&lt;/b&gt;&lt;/p&gt;&lt;hr&gt;&lt;p style=&quot;margin: 0px; margin-left: 8px;&quot;&gt;id: UUID&lt;/p&gt;&lt;p style=&quot;margin: 0px; margin-left: 8px;&quot;&gt;date: DateTime&lt;/p&gt;&lt;p style=&quot;margin: 0px; margin-left: 8px;&quot;&gt;startDate: DateTime&lt;/p&gt;&lt;p style=&quot;margin: 0px; margin-left: 8px;&quot;&gt;endDate: DateTime&lt;/p&gt;&lt;p style=&quot;margin: 0px; margin-left: 8px;&quot;&gt;vehicles: List&amp;lt;Vehicle&amp;gt;&lt;/p&gt;&lt;p style=&quot;margin: 0px; margin-left: 8px;&quot;&gt;customer: Customer&lt;/p&gt;&lt;p style=&quot;margin: 0px; margin-left: 8px;&quot;&gt;invoice: Invoice&lt;/p&gt;&lt;p style=&quot;margin: 0px; margin-left: 8px;&quot;&gt;status: RentStatusEnum&lt;/p&gt;&lt;p style=&quot;margin: 0px; margin-left: 8px;&quot;&gt;&lt;br&gt;&lt;/p&gt;" style="verticalAlign=top;align=left;overflow=fill;fontSize=12;fontFamily=Helvetica;html=1;strokeColor=#003366;shadow=1;fillColor=#D4E1F5;fontColor=#003366" parent="1" vertex="1">
          <mxGeometry x="630" y="-30" width="160" height="160" as="geometry" />
        </mxCell>
        <mxCell id="1C2bqcWKQXLCqtVfAiTg-116" value="&lt;p style=&quot;margin: 0px; margin-top: 4px; text-align: center; text-decoration: underline;&quot;&gt;&lt;b&gt;Vehicle&lt;/b&gt;&lt;/p&gt;&lt;hr&gt;&lt;p style=&quot;margin: 0px; margin-left: 8px;&quot;&gt;id: UUID&lt;/p&gt;&lt;p style=&quot;margin: 0px; margin-left: 8px;&quot;&gt;brand: String&lt;/p&gt;&lt;p style=&quot;margin: 0px; margin-left: 8px;&quot;&gt;model: String&lt;/p&gt;&lt;p style=&quot;margin: 0px; margin-left: 8px;&quot;&gt;year: ShortInt&lt;/p&gt;&lt;p style=&quot;margin: 0px; margin-left: 8px;&quot;&gt;description: String&lt;/p&gt;&lt;p style=&quot;margin: 0px; margin-left: 8px;&quot;&gt;buyDate: DateTime&lt;/p&gt;&lt;p style=&quot;margin: 0px; margin-left: 8px;&quot;&gt;&lt;span style=&quot;background-color: initial;&quot;&gt;created: DateTime&lt;/span&gt;&lt;/p&gt;&lt;p style=&quot;margin: 0px; margin-left: 8px;&quot;&gt;updated: DateTime&lt;/p&gt;&lt;p style=&quot;margin: 0px; margin-left: 8px;&quot;&gt;vehicleType: VehicleType&lt;/p&gt;&lt;p style=&quot;margin: 0px; margin-left: 8px;&quot;&gt;readyForUse: Boolean&lt;/p&gt;&lt;p style=&quot;margin: 0px; margin-left: 8px;&quot;&gt;lockForRent: Boolean&lt;/p&gt;&lt;p style=&quot;margin: 0px; margin-left: 8px;&quot;&gt;lockForManteinance: Boolean&lt;/p&gt;&lt;p style=&quot;margin: 0px; margin-left: 8px;&quot;&gt;trackings: List&amp;lt;VehicleTracking&amp;gt;&lt;/p&gt;" style="verticalAlign=top;align=left;overflow=fill;fontSize=12;fontFamily=Helvetica;html=1;strokeColor=#003366;shadow=1;fillColor=#D4E1F5;fontColor=#003366" parent="1" vertex="1">
          <mxGeometry x="650" y="445" width="190" height="230" as="geometry" />
        </mxCell>
        <mxCell id="1C2bqcWKQXLCqtVfAiTg-117" value="&lt;p style=&quot;margin: 0px; margin-top: 4px; text-align: center; text-decoration: underline;&quot;&gt;&lt;b&gt;Customer&lt;/b&gt;&lt;/p&gt;&lt;hr&gt;&lt;p style=&quot;margin: 0px; margin-left: 8px;&quot;&gt;id: UUID&lt;br&gt;&lt;/p&gt;&lt;p style=&quot;margin: 0px; margin-left: 8px;&quot;&gt;address: String&lt;/p&gt;&lt;p style=&quot;margin: 0px; margin-left: 8px;&quot;&gt;customerId: Integer&lt;/p&gt;&lt;p style=&quot;margin: 0px; margin-left: 8px;&quot;&gt;enabled: Boolean&lt;br&gt;&lt;/p&gt;&lt;p style=&quot;margin: 0px; margin-left: 8px;&quot;&gt;profile: CustomerProfile&lt;/p&gt;&lt;p style=&quot;margin: 0px; margin-left: 8px;&quot;&gt;&lt;br&gt;&lt;/p&gt;" style="verticalAlign=top;align=left;overflow=fill;fontSize=12;fontFamily=Helvetica;html=1;strokeColor=#003366;shadow=1;fillColor=#D4E1F5;fontColor=#003366" parent="1" vertex="1">
          <mxGeometry x="950" y="190" width="160" height="110" as="geometry" />
        </mxCell>
        <mxCell id="1C2bqcWKQXLCqtVfAiTg-118" value="&lt;p style=&quot;margin: 0px; margin-top: 4px; text-align: center; text-decoration: underline;&quot;&gt;&lt;b&gt;CustomerProfile&lt;/b&gt;&lt;/p&gt;&lt;hr&gt;&lt;p style=&quot;margin: 0px; margin-left: 8px;&quot;&gt;user String&lt;/p&gt;&lt;p style=&quot;margin: 0px; margin-left: 8px;&quot;&gt;password: String&lt;/p&gt;&lt;p style=&quot;margin: 0px; margin-left: 8px;&quot;&gt;email: String&lt;/p&gt;&lt;p style=&quot;margin: 0px; margin-left: 8px;&quot;&gt;paymentMethods: Array&lt;/p&gt;&lt;p style=&quot;margin: 0px; margin-left: 8px;&quot;&gt;profilePicture: ByteArray&lt;/p&gt;&lt;p style=&quot;margin: 0px; margin-left: 8px;&quot;&gt;&lt;br&gt;&lt;/p&gt;" style="verticalAlign=top;align=left;overflow=fill;fontSize=12;fontFamily=Helvetica;html=1;strokeColor=#003366;shadow=1;fillColor=#D4E1F5;fontColor=#003366" parent="1" vertex="1">
          <mxGeometry x="1200" y="121.08" width="160" height="110" as="geometry" />
        </mxCell>
        <mxCell id="1C2bqcWKQXLCqtVfAiTg-121" value="" style="resizable=0;align=right;verticalAlign=top;labelBackgroundColor=#ffffff;fontSize=10;strokeColor=#003366;shadow=1;fillColor=#D4E1F5;fontColor=#003366" parent="1" connectable="0" vertex="1">
          <mxGeometry x="699.9600122970669" y="429.9989509609913" as="geometry">
            <mxPoint x="270" y="-249" as="offset" />
          </mxGeometry>
        </mxCell>
        <mxCell id="1C2bqcWKQXLCqtVfAiTg-122" value="1" style="endArrow=open;endSize=12;startArrow=diamondThin;startSize=14;startFill=1;edgeStyle=orthogonalEdgeStyle;align=left;verticalAlign=bottom;entryX=0;entryY=0.294;entryDx=0;entryDy=0;entryPerimeter=0;endFill=0;" parent="1" target="1C2bqcWKQXLCqtVfAiTg-118" edge="1">
          <mxGeometry x="0.2862" y="81" relative="1" as="geometry">
            <mxPoint x="1110" y="260" as="sourcePoint" />
            <mxPoint x="1140" y="230" as="targetPoint" />
            <mxPoint as="offset" />
          </mxGeometry>
        </mxCell>
        <mxCell id="1C2bqcWKQXLCqtVfAiTg-124" value="0..n" style="resizable=0;align=left;verticalAlign=top;labelBackgroundColor=#ffffff;fontSize=10;strokeColor=#003366;shadow=1;fillColor=#D4E1F5;fontColor=#003366" parent="1" connectable="0" vertex="1">
          <mxGeometry x="610" y="630.0000000000003" as="geometry" />
        </mxCell>
        <mxCell id="1C2bqcWKQXLCqtVfAiTg-127" value="1" style="resizable=0;align=right;verticalAlign=top;labelBackgroundColor=#ffffff;fontSize=10;strokeColor=#003366;shadow=1;fillColor=#D4E1F5;fontColor=#003366" parent="1" connectable="0" vertex="1">
          <mxGeometry x="880.0000122970669" y="-120.0010490390087" as="geometry" />
        </mxCell>
        <mxCell id="1C2bqcWKQXLCqtVfAiTg-128" value="1" style="resizable=0;align=right;verticalAlign=top;labelBackgroundColor=#ffffff;fontSize=10;strokeColor=#003366;shadow=1;fillColor=#D4E1F5;fontColor=#003366" parent="1" connectable="0" vertex="1">
          <mxGeometry x="699.9600122970669" y="449.9989509609913" as="geometry">
            <mxPoint x="426" y="-214" as="offset" />
          </mxGeometry>
        </mxCell>
        <mxCell id="1C2bqcWKQXLCqtVfAiTg-129" value="&lt;p style=&quot;margin: 0px; margin-top: 4px; text-align: center; text-decoration: underline;&quot;&gt;&lt;b&gt;Person&lt;/b&gt;&lt;/p&gt;&lt;hr&gt;&lt;p style=&quot;margin: 0px; margin-left: 8px;&quot;&gt;&lt;span style=&quot;background-color: initial;&quot;&gt;firstName: String&lt;/span&gt;&lt;br&gt;&lt;/p&gt;&lt;p style=&quot;margin: 0px; margin-left: 8px;&quot;&gt;lastName: String&lt;/p&gt;&lt;p style=&quot;margin: 0px; margin-left: 8px;&quot;&gt;birthday: Date&lt;/p&gt;&lt;p style=&quot;margin: 0px; margin-left: 8px;&quot;&gt;personId: String&lt;/p&gt;&lt;p style=&quot;margin: 0px; margin-left: 8px;&quot;&gt;&lt;br&gt;&lt;/p&gt;&lt;p style=&quot;margin: 0px; margin-left: 8px;&quot;&gt;&lt;br&gt;&lt;/p&gt;" style="verticalAlign=top;align=left;overflow=fill;fontSize=12;fontFamily=Helvetica;html=1;strokeColor=#003366;shadow=1;fillColor=#D4E1F5;fontColor=#003366" parent="1" vertex="1">
          <mxGeometry x="870" y="410" width="160" height="100" as="geometry" />
        </mxCell>
        <mxCell id="1C2bqcWKQXLCqtVfAiTg-130" value="&lt;p style=&quot;margin: 0px; margin-top: 4px; text-align: center; text-decoration: underline;&quot;&gt;&lt;b&gt;Company&lt;/b&gt;&lt;/p&gt;&lt;hr&gt;&lt;p style=&quot;margin: 0px; margin-left: 8px;&quot;&gt;businessName: String&lt;/p&gt;&lt;p style=&quot;margin: 0px; margin-left: 8px;&quot;&gt;businessType: String&lt;/p&gt;&lt;p style=&quot;margin: 0px; margin-left: 8px;&quot;&gt;businessId: String&lt;/p&gt;" style="verticalAlign=top;align=left;overflow=fill;fontSize=12;fontFamily=Helvetica;html=1;strokeColor=#003366;shadow=1;fillColor=#D4E1F5;fontColor=#003366" parent="1" vertex="1">
          <mxGeometry x="1070" y="410" width="160" height="100" as="geometry" />
        </mxCell>
        <mxCell id="1C2bqcWKQXLCqtVfAiTg-131" value="Extends" style="endArrow=block;endSize=16;endFill=0;html=1;rounded=0;exitX=0.606;exitY=-0.015;exitDx=0;exitDy=0;exitPerimeter=0;entryX=0.25;entryY=1;entryDx=0;entryDy=0;" parent="1" source="1C2bqcWKQXLCqtVfAiTg-129" target="1C2bqcWKQXLCqtVfAiTg-117" edge="1">
          <mxGeometry width="160" relative="1" as="geometry">
            <mxPoint x="650" y="450" as="sourcePoint" />
            <mxPoint x="810" y="450" as="targetPoint" />
          </mxGeometry>
        </mxCell>
        <mxCell id="1C2bqcWKQXLCqtVfAiTg-132" value="Extends" style="endArrow=block;endSize=16;endFill=0;html=1;rounded=0;exitX=0.325;exitY=-0.01;exitDx=0;exitDy=0;exitPerimeter=0;entryX=0.75;entryY=1;entryDx=0;entryDy=0;" parent="1" source="1C2bqcWKQXLCqtVfAiTg-130" target="1C2bqcWKQXLCqtVfAiTg-117" edge="1">
          <mxGeometry width="160" relative="1" as="geometry">
            <mxPoint x="1020" y="457" as="sourcePoint" />
            <mxPoint x="1073" y="390" as="targetPoint" />
          </mxGeometry>
        </mxCell>
        <mxCell id="1C2bqcWKQXLCqtVfAiTg-134" value="1" style="resizable=0;align=right;verticalAlign=top;labelBackgroundColor=#ffffff;fontSize=10;strokeColor=#003366;shadow=1;fillColor=#D4E1F5;fontColor=#003366" parent="1" connectable="0" vertex="1">
          <mxGeometry x="760.0000122970669" y="674.9989509609912" as="geometry" />
        </mxCell>
        <mxCell id="1C2bqcWKQXLCqtVfAiTg-138" value="" style="resizable=0;align=right;verticalAlign=top;labelBackgroundColor=#ffffff;fontSize=10;strokeColor=#003366;shadow=1;fillColor=#D4E1F5;fontColor=#003366" parent="1" connectable="0" vertex="1">
          <mxGeometry x="630.0000122970669" y="529.9989509609912" as="geometry">
            <mxPoint x="56" y="-120" as="offset" />
          </mxGeometry>
        </mxCell>
        <mxCell id="1C2bqcWKQXLCqtVfAiTg-139" style="edgeStyle=orthogonalEdgeStyle;rounded=0;orthogonalLoop=1;jettySize=auto;html=1;exitX=0.5;exitY=1;exitDx=0;exitDy=0;" parent="1" source="1C2bqcWKQXLCqtVfAiTg-117" target="1C2bqcWKQXLCqtVfAiTg-117" edge="1">
          <mxGeometry relative="1" as="geometry" />
        </mxCell>
        <mxCell id="1C2bqcWKQXLCqtVfAiTg-143" value="" style="endArrow=none;endSize=12;startArrow=open;startSize=14;startFill=0;edgeStyle=orthogonalEdgeStyle;rounded=0;entryX=0.906;entryY=0.001;entryDx=0;entryDy=0;entryPerimeter=0;endFill=0;exitX=-0.021;exitY=0.822;exitDx=0;exitDy=0;exitPerimeter=0;" parent="1" source="1C2bqcWKQXLCqtVfAiTg-114" target="27" edge="1">
          <mxGeometry x="769.3599999999999" y="450" as="geometry">
            <mxPoint x="606" y="155.5" as="sourcePoint" />
            <mxPoint x="570" y="344.5" as="targetPoint" />
          </mxGeometry>
        </mxCell>
        <mxCell id="1C2bqcWKQXLCqtVfAiTg-144" value="1" style="resizable=0;align=left;verticalAlign=top;labelBackgroundColor=#ffffff;fontSize=10;strokeColor=#003366;shadow=1;fillColor=#D4E1F5;fontColor=#003366" parent="1C2bqcWKQXLCqtVfAiTg-143" connectable="0" vertex="1">
          <mxGeometry x="-1" relative="1" as="geometry">
            <mxPoint x="-25" y="6" as="offset" />
          </mxGeometry>
        </mxCell>
        <mxCell id="1C2bqcWKQXLCqtVfAiTg-147" value="1" style="resizable=0;align=left;verticalAlign=top;labelBackgroundColor=#ffffff;fontSize=10;strokeColor=#003366;shadow=1;fillColor=#D4E1F5;fontColor=#003366" parent="1" connectable="0" vertex="1">
          <mxGeometry x="549.9999999999999" y="269.9999999999999" as="geometry">
            <mxPoint x="-114" y="113" as="offset" />
          </mxGeometry>
        </mxCell>
        <mxCell id="1C2bqcWKQXLCqtVfAiTg-148" value="" style="endArrow=none;endSize=12;startArrow=open;startSize=14;startFill=0;edgeStyle=orthogonalEdgeStyle;rounded=0;entryX=0.75;entryY=1;entryDx=0;entryDy=0;endFill=0;exitX=0.688;exitY=-0.032;exitDx=0;exitDy=0;exitPerimeter=0;" parent="1" source="1C2bqcWKQXLCqtVfAiTg-117" target="26" edge="1">
          <mxGeometry x="769.3599999999999" y="450" as="geometry">
            <mxPoint x="1060" y="190" as="sourcePoint" />
            <mxPoint x="1100" y="136" as="targetPoint" />
            <Array as="points">
              <mxPoint x="1060" y="20" />
              <mxPoint x="1020" y="20" />
            </Array>
          </mxGeometry>
        </mxCell>
        <mxCell id="1C2bqcWKQXLCqtVfAiTg-150" value="&lt;p style=&quot;margin: 0px; margin-top: 4px; text-align: center; text-decoration: underline;&quot;&gt;&lt;b&gt;InvoiceDetail&lt;/b&gt;&lt;/p&gt;&lt;hr&gt;&lt;p style=&quot;margin: 0px; margin-left: 8px;&quot;&gt;id: UUID&lt;/p&gt;&lt;p style=&quot;margin: 0px; margin-left: 8px;&quot;&gt;vehicle: Vehicle&lt;/p&gt;&lt;p style=&quot;margin: 0px; margin-left: 8px;&quot;&gt;countOfDays: shortInt&lt;/p&gt;&lt;p style=&quot;margin: 0px; margin-left: 8px;&quot;&gt;unitPrice: Double&lt;/p&gt;&lt;p style=&quot;margin: 0px; margin-left: 8px;&quot;&gt;taxes: Double&lt;/p&gt;&lt;p style=&quot;margin: 0px; margin-left: 8px;&quot;&gt;&lt;br&gt;&lt;/p&gt;&lt;p style=&quot;margin: 0px; margin-left: 8px;&quot;&gt;&lt;br&gt;&lt;/p&gt;" style="verticalAlign=top;align=left;overflow=fill;fontSize=12;fontFamily=Helvetica;html=1;strokeColor=#003366;shadow=1;fillColor=#D4E1F5;fontColor=#003366" parent="1" vertex="1">
          <mxGeometry x="1150" y="-140" width="160" height="110" as="geometry" />
        </mxCell>
        <mxCell id="1C2bqcWKQXLCqtVfAiTg-151" value="1..n" style="endArrow=open;endSize=12;startArrow=diamondThin;startSize=14;startFill=1;edgeStyle=orthogonalEdgeStyle;align=left;verticalAlign=bottom;entryX=-0.031;entryY=0.539;entryDx=0;entryDy=0;endFill=0;exitX=1.006;exitY=0.2;exitDx=0;exitDy=0;exitPerimeter=0;entryPerimeter=0;" parent="1" target="1C2bqcWKQXLCqtVfAiTg-150" edge="1">
          <mxGeometry x="-0.8181818181818175" y="4.999999999999702" relative="1" as="geometry">
            <mxPoint x="1060" y="-62.75" as="sourcePoint" />
            <mxPoint x="1169" y="-177.75" as="targetPoint" />
            <mxPoint as="offset" />
          </mxGeometry>
        </mxCell>
        <mxCell id="1C2bqcWKQXLCqtVfAiTg-153" value="1" style="resizable=0;align=left;verticalAlign=top;labelBackgroundColor=#ffffff;fontSize=10;strokeColor=#003366;shadow=1;fillColor=#D4E1F5;fontColor=#003366" parent="1" connectable="0" vertex="1">
          <mxGeometry x="1030" y="-30.000000000000142" as="geometry" />
        </mxCell>
        <mxCell id="1C2bqcWKQXLCqtVfAiTg-154" value="1" style="resizable=0;align=left;verticalAlign=top;labelBackgroundColor=#ffffff;fontSize=10;strokeColor=#003366;shadow=1;fillColor=#D4E1F5;fontColor=#003366" parent="1" connectable="0" vertex="1">
          <mxGeometry x="1120" y="-110.00000000000011" as="geometry" />
        </mxCell>
        <mxCell id="1C2bqcWKQXLCqtVfAiTg-155" value="&lt;p style=&quot;margin: 0px; margin-top: 4px; text-align: center; text-decoration: underline;&quot;&gt;&lt;b&gt;FleetPrice&lt;/b&gt;&lt;/p&gt;&lt;hr&gt;&lt;p style=&quot;margin: 0px; margin-left: 8px;&quot;&gt;id: UUID&lt;/p&gt;&lt;p style=&quot;margin: 0px; margin-left: 8px;&quot;&gt;price: Double&lt;/p&gt;&lt;p style=&quot;margin: 0px; margin-left: 8px;&quot;&gt;validityStartDate: DateTime&lt;/p&gt;&lt;p style=&quot;margin: 0px; margin-left: 8px;&quot;&gt;&lt;span style=&quot;background-color: initial;&quot;&gt;validity&lt;/span&gt;EndDate: DateTime&lt;/p&gt;&lt;p style=&quot;margin: 0px; margin-left: 8px;&quot;&gt;&lt;span style=&quot;background-color: initial;&quot;&gt;vehicle: Vehicle&lt;/span&gt;&lt;br&gt;&lt;/p&gt;&lt;p style=&quot;margin: 0px; margin-left: 8px;&quot;&gt;&lt;br&gt;&lt;/p&gt;&lt;p style=&quot;margin: 0px; margin-left: 8px;&quot;&gt;&lt;br&gt;&lt;/p&gt;&lt;p style=&quot;margin: 0px; margin-left: 8px;&quot;&gt;&lt;br&gt;&lt;/p&gt;" style="verticalAlign=top;align=left;overflow=fill;fontSize=12;fontFamily=Helvetica;html=1;strokeColor=#003366;shadow=1;fillColor=#D4E1F5;fontColor=#003366" parent="1" vertex="1">
          <mxGeometry x="500" y="190" width="160" height="120" as="geometry" />
        </mxCell>
        <mxCell id="1C2bqcWKQXLCqtVfAiTg-156" value="" style="endArrow=none;endSize=12;startArrow=open;startSize=14;startFill=0;edgeStyle=orthogonalEdgeStyle;rounded=0;entryX=0.25;entryY=1;entryDx=0;entryDy=0;endFill=0;exitX=0.096;exitY=-0.007;exitDx=0;exitDy=0;exitPerimeter=0;" parent="1" source="1C2bqcWKQXLCqtVfAiTg-116" target="1C2bqcWKQXLCqtVfAiTg-155" edge="1">
          <mxGeometry x="769.3599999999999" y="450" as="geometry">
            <mxPoint x="690" y="340" as="sourcePoint" />
            <mxPoint x="494" y="450" as="targetPoint" />
            <Array as="points">
              <mxPoint x="668" y="340" />
              <mxPoint x="540" y="340" />
            </Array>
          </mxGeometry>
        </mxCell>
        <mxCell id="1C2bqcWKQXLCqtVfAiTg-157" value="" style="resizable=0;align=left;verticalAlign=top;labelBackgroundColor=#ffffff;fontSize=10;strokeColor=#003366;shadow=1;fillColor=#D4E1F5;fontColor=#003366" parent="1C2bqcWKQXLCqtVfAiTg-156" connectable="0" vertex="1">
          <mxGeometry x="-1" relative="1" as="geometry">
            <mxPoint x="-25" y="6" as="offset" />
          </mxGeometry>
        </mxCell>
        <mxCell id="1C2bqcWKQXLCqtVfAiTg-158" value="0..n" style="resizable=0;align=right;verticalAlign=top;labelBackgroundColor=#ffffff;fontSize=10;strokeColor=#003366;shadow=1;fillColor=#D4E1F5;fontColor=#003366" parent="1" connectable="0" vertex="1">
          <mxGeometry x="730.0000122970669" y="409.99895096099124" as="geometry" />
        </mxCell>
        <mxCell id="1C2bqcWKQXLCqtVfAiTg-159" value="1" style="resizable=0;align=right;verticalAlign=top;labelBackgroundColor=#ffffff;fontSize=10;strokeColor=#003366;shadow=1;fillColor=#D4E1F5;fontColor=#003366" parent="1" connectable="0" vertex="1">
          <mxGeometry x="660.0000122970669" y="409.99895096099124" as="geometry" />
        </mxCell>
        <mxCell id="1C2bqcWKQXLCqtVfAiTg-160" value="1" style="resizable=0;align=right;verticalAlign=top;labelBackgroundColor=#ffffff;fontSize=10;strokeColor=#003366;shadow=1;fillColor=#D4E1F5;fontColor=#003366" parent="1" connectable="0" vertex="1">
          <mxGeometry x="680.0000122970669" y="419.99895096099124" as="geometry">
            <mxPoint x="-122" y="-100" as="offset" />
          </mxGeometry>
        </mxCell>
        <mxCell id="1C2bqcWKQXLCqtVfAiTg-161" value="Use" style="endArrow=open;endSize=12;dashed=1;html=1;rounded=0;entryX=1;entryY=0.5;entryDx=0;entryDy=0;" parent="1" target="1C2bqcWKQXLCqtVfAiTg-155" edge="1">
          <mxGeometry width="160" relative="1" as="geometry">
            <mxPoint x="920" y="-30" as="sourcePoint" />
            <mxPoint x="1020" y="50" as="targetPoint" />
            <Array as="points">
              <mxPoint x="920" y="250" />
            </Array>
          </mxGeometry>
        </mxCell>
        <mxCell id="1C2bqcWKQXLCqtVfAiTg-163" value="1" style="resizable=0;align=left;verticalAlign=top;labelBackgroundColor=#ffffff;fontSize=10;strokeColor=#003366;shadow=1;fillColor=#D4E1F5;fontColor=#003366" parent="1" connectable="0" vertex="1">
          <mxGeometry x="611.6399999999999" y="121.07999999999993" as="geometry">
            <mxPoint x="545" y="12" as="offset" />
          </mxGeometry>
        </mxCell>
        <mxCell id="1C2bqcWKQXLCqtVfAiTg-164" value="0..n" style="resizable=0;align=left;verticalAlign=top;labelBackgroundColor=#ffffff;fontSize=10;strokeColor=#003366;shadow=1;fillColor=#D4E1F5;fontColor=#003366" parent="1" connectable="0" vertex="1">
          <mxGeometry x="611.6400000000003" y="121.07999999999993" as="geometry">
            <mxPoint x="404" y="42" as="offset" />
          </mxGeometry>
        </mxCell>
      </root>
    </mxGraphModel>
  </diagram>
</mxfile>
